<?xml version="1.0"?>
<!DOCTYPE svg PUBLIC "-//W3C//DTD SVG 1.0//EN" "http://www.w3.org/TR/2001/REC-SVG-20010904/DTD/svg10.dtd">
<svg xmlns="http://www.w3.org/2000/svg" xmlns:xlink="http://www.w3.org/1999/xlink" width="512px" height="512px">
<g>
<rect x="0px" y="0px" width="512px" height="512px" rx="96px" ry="96px" fill="#ef000f" />
</g>
<g>
<path fill-rule="evenodd" fill="#fdfdfd" d="M 108.338 393.669 L 108.338 119.193 L 145.338 119.193 L 145.338 347.193 L 239.338 347.193 L 239.338 393.669 C 239.338 393.669 108.338 393.669 108.338 393.669 z M 266.338 116.193 L 334.135 116.193 C 349.416 116.193 361.067 117.958 369.088 121.489 C 379.869 126.286 389.103 134.802 396.791 147.036 C 404.468 159.286 410.312 174.27 414.322 191.989 C 418.332 209.723 420.338 231.591 420.338 257.591 C 420.338 280.435 418.457 300.122 414.697 316.653 C 410.103 336.841 403.547 353.185 395.026 365.685 C 388.599 375.138 379.911 382.521 368.963 387.833 C 360.776 391.724 349.833 393.669 336.135 393.669 L 266.338 393.669 C 266.338 393.669 266.338 116.193 266.338 116.193 z M 303.338 162.693 L 303.338 347.193 L 331.182 347.193 C 341.599 347.193 349.119 346.31 353.744 344.544 C 359.786 342.263 364.801 338.396 368.791 332.943 C 372.781 327.49 376.036 318.52 378.557 306.036 C 381.078 293.567 382.338 276.567 382.338 255.036 C 382.338 233.505 381.078 216.974 378.557 205.443 C 376.036 193.912 372.51 184.912 367.979 178.443 C 363.437 171.99 357.682 167.622 350.713 165.341 C 345.505 163.575 335.296 162.693 320.088 162.693 C 320.088 162.693 303.338 162.693 303.338 162.693 z" />
</g>
</svg>
